<?xml version="1.0" encoding="UTF-8"?>
<svg id="Capa_2" data-name="Capa 2" xmlns="http://www.w3.org/2000/svg" viewBox="0 0 149.09 94.79">
  <defs>
    <style>
      .cls-1 {
        fill: #1d1d1b;
      }
    </style>
  </defs>
  <g id="Capa_3" data-name="Capa 3">
    <path class="cls-1" d="m94.07,27.81c4.79-8.66,1.59-20.11-6.95-25.09S67.28-.19,60.97,7.46c-3.17,3.84-5.15,8.59-5.31,13.59-.19,5.92,3.25,10.66,6.9,14.98,6.64,7.86,15.48,13.97,25.52,16.52,5.73,1.46,11.69,1.88,17.58,2,5.17.11,10.37.15,15.54-.13s9.95-.88,14.66-2.46c2.29-.77,4.54-1.75,6.61-3s4.52-2.86,5.8-4.99c1.46-2.43.9-5.17-.96-7.19-1.7-1.84-4.19-2.94-6.42-3.98-5.22-2.45-10.71-4.11-16.52-4.12-4.97,0-9.97.95-14.64,2.62-3.08,1.11-5.97,2.57-8.92,3.98-18.56,8.91-39.37,14.31-59.94,15.33-8.96.44-17.89-.17-26.66-2.11-2.59-.57-5.04-1.04-7.14-2.75-.65-.53-1.27-1.13-1.69-1.84-.28-.46-.27-.41-.37-.92.06.3.07,0,0-.08-.24-.34.13-.08-.05.1.04-.04.04-.2.06-.25.11-.3.02.16-.15.34.02-.02.06-.17.08-.17,0,0,.46-.69.14-.25-.25.33.36-.37.47-.48.1-.09.66-.57.35-.33.37-.29.78-.56,1.18-.81,1.07-.67,2.2-1.25,3.35-1.78,3.92-1.82,8.15-3.01,12.42-3.66-.8.12.33-.03.57-.06,1.05-.11,2.11-.21,3.16-.3,2.29-.19,4.59-.32,6.89-.32,5.01,0,10.12.63,14.75,2.65,3.73,1.63,6.91,4.08,9.76,6.94,5.79,5.79,10.08,12.85,14.55,19.66,2.09,3.18,4.22,6.34,6.61,9.3,2.21,2.74,4.86,5.54,8.08,7.08,2.5,1.19,5.32,1.54,7.81.1,2.11-1.22,3.66-3.53,4.16-5.9,1.09-5.16-1.63-10.22-5.68-13.29-4.53-3.43-10.14-4.1-15.58-4.94-4.08-.63-7.96-1.46-11.89.23-4.42,1.9-8.08,5.74-9.41,10.4s.01,9.73,2.42,13.83c4.8,8.17,14.23,13.31,23.59,13.75,4.8.23,9.52-.97,13.78-3.13,2.87-1.45.34-5.77-2.52-4.32-7.76,3.93-16.82,2.88-23.94-1.92-6.11-4.12-12.05-13.1-6.9-20.15,1.1-1.51,2.6-2.7,4.24-3.57.73-.39,1.48-.67,2.29-.87.44-.11.92-.13,1.77-.11,1.86.06,3.55.41,5.43.7,2.53.39,5.07.67,7.55,1.32,4.1,1.06,8.47,3.33,9.78,7.69.5,1.67.48,3.57-.6,5.03-1.14,1.55-2.79,1.38-4.34.54-.55-.3-1.06-.65-1.57-1.01,0,0-.54-.4-.28-.2s-.31-.26-.29-.23c-.55-.46-1.08-.95-1.6-1.46-1.09-1.08-2.09-2.24-3.04-3.44-1.95-2.44-3.99-5.55-5.83-8.36-4.31-6.59-8.53-13.34-13.94-19.1-2.6-2.77-5.52-5.3-8.78-7.26-4.27-2.56-9.05-3.94-13.96-4.57-4.48-.57-9.01-.44-13.5-.05-2.95.25-5.86.57-8.75,1.26-4.65,1.11-9.49,2.8-13.5,5.45-1.93,1.28-3.94,2.96-4.14,5.42-.36,4.4,4.05,7.88,7.61,9.51,1.2.55,2.6.78,3.88,1.08,1.4.33,2.81.63,4.22.9,2.42.46,4.85.83,7.29,1.13,17.64,2.16,35.95-.55,52.97-5.25,9.81-2.71,19.45-6.26,28.57-10.79,6.61-3.28,13.7-5.65,21.39-5.29,5.07.24,9.95,2.09,14.42,4.39.9.46,3.9,1.7,3.76,2.96-.08.69-1.09,1.35-1.58,1.76-.86.72-1.8,1.35-2.77,1.92-7.75,4.62-17.32,4.84-26.09,4.86-10.21.03-21.05.24-30.58-4-4.21-1.87-8.1-4.42-11.54-7.48s-6.78-6.65-9.16-10.64c-4.61-7.71.7-18.17,8.53-21.4s17,.37,19.63,8.28c1.2,3.61,1.04,7.58-.81,10.93-1.56,2.82,2.76,5.34,4.32,2.52h0Z"/>
  </g>
</svg>